<svg width="43" height="43" viewBox="0 0 43 43" fill="none" xmlns="http://www.w3.org/2000/svg">
<path d="M21.5002 4.22244C18.8499 4.22071 16.2347 4.82744 13.8559 5.99588C11.4771 7.16432 9.39836 8.86327 7.77976 10.9618C6.16117 13.0604 5.04596 15.5025 4.52006 18.1C3.99417 20.6976 4.07163 23.3812 4.74647 25.9441C5.42132 28.507 6.67554 30.8807 8.41248 32.8824C10.1494 34.8841 12.3227 36.4603 14.7649 37.4896C17.2071 38.5189 19.853 38.9738 22.4988 38.8192C25.1445 38.6646 27.7194 37.9046 30.0251 36.5979L36.5349 38.7673C36.7118 38.8231 36.8964 38.8506 37.082 38.8486C37.3561 38.8484 37.6264 38.7831 37.8703 38.658C38.1143 38.533 38.3251 38.3518 38.4854 38.1293C38.6457 37.9068 38.7508 37.6495 38.7921 37.3784C38.8335 37.1074 38.8099 36.8304 38.7232 36.5702L36.5626 30.0605C38.059 27.428 38.838 24.4487 38.8215 21.4206C38.805 18.3926 37.9937 15.4219 36.4687 12.8059C34.9436 10.1898 32.7584 8.02009 30.1315 6.51376C27.5046 5.00743 24.5283 4.21731 21.5002 4.22244ZM33.0186 30.4016L34.3448 34.3836L30.3627 33.0574C30.1198 32.9746 29.8614 32.9471 29.6064 32.9771C29.3515 33.007 29.1065 33.0936 28.8894 33.2305C26.0018 35.058 22.5418 35.7564 19.1714 35.1922C15.8011 34.628 12.7572 32.8407 10.6222 30.1725C8.48731 27.5042 7.41129 24.1424 7.60014 20.7304C7.78898 17.3183 9.22941 14.0958 11.6458 11.6794C14.0621 9.26306 17.2847 7.82263 20.6967 7.63378C24.1087 7.44494 27.4706 8.52095 30.1388 10.6559C32.8071 12.7908 34.5943 15.8348 35.1586 19.2051C35.7228 22.5754 35.0243 26.0355 33.1969 28.923C33.059 29.1407 32.9715 29.3864 32.9406 29.6422C32.9098 29.8979 32.9364 30.1574 33.0186 30.4016Z" fill="white"/>
</svg>
