<svg width="33" height="33" viewBox="0 0 33 33" fill="none" xmlns="http://www.w3.org/2000/svg">
<path d="M28.5366 10.5255H4.53662C3.98995 10.5255 3.53662 10.0721 3.53662 9.52545C3.53662 8.97879 3.98995 8.52545 4.53662 8.52545H28.5366C29.0833 8.52545 29.5366 8.97879 29.5366 9.52545C29.5366 10.0721 29.0833 10.5255 28.5366 10.5255Z" fill="#212121"/>
<path d="M28.5366 17.1921H4.53662C3.98995 17.1921 3.53662 16.7388 3.53662 16.1921C3.53662 15.6455 3.98995 15.1921 4.53662 15.1921H28.5366C29.0833 15.1921 29.5366 15.6455 29.5366 16.1921C29.5366 16.7388 29.0833 17.1921 28.5366 17.1921Z" fill="#212121"/>
<path d="M28.5366 23.8588H4.53662C3.98995 23.8588 3.53662 23.4055 3.53662 22.8588C3.53662 22.3122 3.98995 21.8588 4.53662 21.8588H28.5366C29.0833 21.8588 29.5366 22.3122 29.5366 22.8588C29.5366 23.4055 29.0833 23.8588 28.5366 23.8588Z" fill="#212121"/>
</svg>
