<svg width="17" height="16" viewBox="0 0 17 16" fill="none" xmlns="http://www.w3.org/2000/svg">
<g clip-path="url(#clip0_360_672)">
<path d="M14.8558 11.28V13.28C14.8565 13.4657 14.8185 13.6494 14.7441 13.8196C14.6697 13.9897 14.5607 14.1424 14.4238 14.2679C14.287 14.3934 14.1255 14.489 13.9496 14.5485C13.7737 14.608 13.5874 14.63 13.4025 14.6133C11.351 14.3904 9.38046 13.6894 7.64912 12.5667C6.03834 11.5431 4.67268 10.1774 3.64912 8.56667C2.52244 6.82747 1.82129 4.84733 1.60246 2.78667C1.5858 2.60231 1.60771 2.41651 1.66679 2.24108C1.72587 2.06566 1.82084 1.90446 1.94563 1.76775C2.07043 1.63103 2.22233 1.5218 2.39165 1.44701C2.56098 1.37222 2.74402 1.33351 2.92912 1.33333H4.92912C5.25266 1.33015 5.56632 1.44472 5.81163 1.65569C6.05694 1.86666 6.21718 2.15963 6.26246 2.48C6.34687 3.12004 6.50342 3.74848 6.72912 4.35333C6.81882 4.59195 6.83823 4.85127 6.78506 5.10059C6.73189 5.3499 6.60837 5.57874 6.42912 5.76L5.58246 6.60667C6.53149 8.2757 7.91343 9.65763 9.58246 10.6067L10.4291 9.76C10.6104 9.58076 10.8392 9.45723 11.0885 9.40406C11.3378 9.35089 11.5972 9.3703 11.8358 9.46C12.4406 9.6857 13.0691 9.84225 13.7091 9.92667C14.033 9.97235 14.3287 10.1355 14.5401 10.385C14.7516 10.6345 14.8639 10.953 14.8558 11.28Z" stroke="#ffffff" stroke-width="1.5" stroke-linecap="round" stroke-linejoin="round"/>
</g>
<defs>
<clipPath id="clip0_360_672">
<rect width="16" height="16" fill="white" transform="translate(0.189148)"/>
</clipPath>
</defs>
</svg>
