<svg width="33" height="33" viewBox="0 0 20 20" fill="none" xmlns="http://www.w3.org/2000/svg">
<path d="M5.5886 4.41009C5.26317 4.08466 4.73553 4.08466 4.41009 4.41009C4.08466 4.73553 4.08466 5.26317 4.41009 5.5886L8.82085 9.99936L4.41012 14.4101C4.08468 14.7355 4.08468 15.2632 4.41012 15.5886C4.73555 15.914 5.26319 15.914 5.58863 15.5886L9.99936 11.1779L14.4101 15.5886C14.7355 15.9141 15.2632 15.9141 15.5886 15.5886C15.914 15.2632 15.914 14.7355 15.5886 14.4101L11.1779 9.99936L15.5886 5.58861C15.9141 5.26317 15.9141 4.73553 15.5886 4.41009C15.2632 4.08466 14.7356 4.08466 14.4101 4.41009L9.99936 8.82085L5.5886 4.41009Z" fill="#082B82"/>
</svg>
