<svg width="34" height="34" viewBox="0 0 34 34" fill="none" xmlns="http://www.w3.org/2000/svg">
<path d="M16.9999 32.2291C8.59909 32.2291 1.77075 25.4008 1.77075 16.9999C1.77075 8.59909 8.59909 1.77075 16.9999 1.77075C25.4008 1.77075 32.2291 8.59909 32.2291 16.9999C32.2291 25.4008 25.4008 32.2291 16.9999 32.2291ZM16.9999 3.89575C9.77492 3.89575 3.89575 9.77492 3.89575 16.9999C3.89575 24.2249 9.77492 30.1041 16.9999 30.1041C24.2249 30.1041 30.1041 24.2249 30.1041 16.9999C30.1041 9.77492 24.2249 3.89575 16.9999 3.89575Z" fill="#34A853"/>
<path d="M14.988 22.0719C14.7047 22.0719 14.4355 21.9586 14.2372 21.7603L10.228 17.7511C9.81721 17.3403 9.81721 16.6603 10.228 16.2494C10.6389 15.8386 11.3189 15.8386 11.7297 16.2494L14.988 19.5078L22.2697 12.2261C22.6805 11.8153 23.3605 11.8153 23.7714 12.2261C24.1822 12.6369 24.1822 13.3169 23.7714 13.7278L15.7389 21.7603C15.5405 21.9586 15.2714 22.0719 14.988 22.0719Z" fill="#34A853"/>
</svg>
