<svg width="25" height="24" viewBox="0 0 25 24" fill="none" xmlns="http://www.w3.org/2000/svg">
<path d="M12.5 22.75C6.57 22.75 1.75 17.93 1.75 12C1.75 6.07 6.57 1.25 12.5 1.25C18.43 1.25 23.25 6.07 23.25 12C23.25 17.93 18.43 22.75 12.5 22.75ZM12.5 2.75C7.4 2.75 3.25 6.9 3.25 12C3.25 17.1 7.4 21.25 12.5 21.25C17.6 21.25 21.75 17.1 21.75 12C21.75 6.9 17.6 2.75 12.5 2.75Z" fill="#082B82"/>
<path d="M11.0804 15.5801C10.8804 15.5801 10.6904 15.5001 10.5504 15.3601L7.72043 12.5301C7.43043 12.2401 7.43043 11.7601 7.72043 11.4701C8.01043 11.1801 8.49043 11.1801 8.78043 11.4701L11.0804 13.7701L16.2204 8.6301C16.5104 8.3401 16.9904 8.3401 17.2804 8.6301C17.5704 8.9201 17.5704 9.4001 17.2804 9.6901L11.6104 15.3601C11.4704 15.5001 11.2804 15.5801 11.0804 15.5801Z" fill="#082B82"/>
</svg>
